PathFileType	4	(X/Y/Z)	RBDS013\RBDS013runT45.trc
DataRate	CameraRate	NumFrames	NumMarkers	Units	OrigDataRate	OrigDataStartFrame	OrigNumFrames
150.000000	150.000000	5	33	mm	150.000000	0	4500
Frame#	Time	L.ASIS			L.Heel.Bottom			L.Heel.Lateral			L.Heel.Top			L.Iliac.Crest			L.MT1			L.MT5			L.PSIS			L.Shank.Bottom.Lateral			L.Shank.Bottom.Medial			L.Shank.Top.Lateral			L.Shank.Top.Medial			L.Thigh.Bottom.Lateral			L.Thigh.Bottom.Medial			L.Thigh.Top.Lateral			L.Thigh.Top.Medial			R.ASIS			R.ASY			R.Heel.Bottom			R.Heel.Lateral			R.Heel.Top			R.Iliac.Crest			R.MT1			R.MT5			R.PSIS			R.Shank.Bottom.Lateral			R.Shank.Bottom.Medial			R.Shank.Top.Lateral			R.Shank.Top.Medial			R.Thigh.Bottom.Lateral			R.Thigh.Bottom.Medial			R.Thigh.Top.Lateral			R.Thigh.Top.Medial			
		X1	Y1	Z1	X2	Y2	Z2	X3	Y3	Z3	X4	Y4	Z4	X5	Y5	Z5	X6	Y6	Z6	X7	Y7	Z7	X8	Y8	Z8	X9	Y9	Z9	X10	Y10	Z10	X11	Y11	Z11	X12	Y12	Z12	X13	Y13	Z13	X14	Y14	Z14	X15	Y15	Z15	X16	Y16	Z16	X17	Y17	Z17	X18	Y18	Z18	X19	Y19	Z19	X20	Y20	Z20	X21	Y21	Z21	X22	Y22	Z22	X23	Y23	Z23	X24	Y24	Z24	X25	Y25	Z25	X26	Y26	Z26	X27	Y27	Z27	X28	Y28	Z28	X29	Y29	Z29	X30	Y30	Z30	X31	Y31	Z31	X32	Y32	Z32	X33	Y33	Z33	

1	0	2312.623120496301	933.382888484215	908.9394863073571	2276.602282289827	174.9624905864827	987.4782503625282	2304.404700949066	189.1612591856197	944.148579349348	2297.99402532775	217.5650077058324	984.8121184759729	2260.438084789059	1017.901903294896	866.6864401028159	2483.814939506362	135.2551776623158	1013.390202562815	2447.495941755985	125.8828805592495	909.1918659192412	2157.037394823484	998.1418687788744	966.9127242378631	2372.541050840487	288.0038712382623	924.2276003439312	2336.877089738186	299.36545833115	965.6150059488333	2384.474263066953	367.173050054296	913.9986096497992	2351.177816029448	378.4224712676843	954.8078668802034	2457.494822194175	684.6471207117528	886.7789318698907	2403.654947900746	635.9570845086723	895.1431416982279	2381.623326573973	759.8246499355146	859.4279775752558	2331.261006022045	714.9658821266854	867.7572473550232	2311.778823716818	916.6927430124924	1131.59663007436	1736.218586318347	203.9591190052299	1075.668253616736	1622.158151400333	344.683981784011	1013.137763384935	1637.507921019719	335.8074439753532	1060.814737500954	1669.682184629725	358.1859676302865	1026.26980009872	2300.525508770428	989.4129662672383	1156.510638726461	1724.204303521588	163.7500844985103	1025.332488900674	1675.823901058355	192.8021224487565	1119.016111624233	2159.623969705131	999.5708309494637	1070.428110256335	1736.641356603243	366.0866105733122	1096.149676118007	1724.123297946757	390.1307726829247	1052.716220799069	1790.417520642189	429.1058978795011	1113.23873936733	1775.035932759471	451.1482140283021	1067.072922641272	2071.126308183651	667.0511705318379	1164.060923063802	2026.974095010197	693.6382212282231	1111.413639217548	2115.689428036948	766.8579479345494	1172.912768755976	2075.796581600172	791.9982178632556	1121.787676349478	
2	0.006666666666666667	2312.183331280493	933.5738541483003	909.3402579207591	2307.806990234439	157.1469210144905	991.7001976124437	2333.747839480136	172.5209229270163	947.705864494383	2325.286661471563	200.6959296351694	987.9483258031894	2258.991168509735	1017.033965732148	866.2274520148101	2515.303235004308	135.7843999157515	1015.390346336221	2479.68863777321	121.2151968400129	911.965815357984	2157.274148101056	999.063674992498	966.0944634865454	2391.986195453595	276.2676817159715	925.9612285377635	2356.400372573385	285.2133775103995	967.6218709717139	2397.148624544772	354.9459270688349	914.3632964768765	2363.682357526691	364.0184008933048	955.3530663474459	2451.046793832417	675.895128127087	884.6796978989996	2396.046553380231	629.1958846060862	895.0188416955001	2377.291161422776	753.2170791760689	858.4379931434815	2325.570891541606	710.0528531638374	868.1249020500285	2312.148225169789	919.7148466682211	1131.846239650087	1717.310623810682	225.7349636842017	1076.843504630203	1611.894962627244	371.7938735361702	1011.553189944625	1626.37913840907	362.5938072289486	1059.44844915144	1659.908884231707	382.6594439623178	1025.014986342764	2298.89233958687	993.5040721991568	1156.227673056175	1703.295554016435	185.6616896629056	1027.103495529949	1656.078302076825	218.699058377328	1119.467119552037	2159.695887728221	1002.624964765415	1069.375641334249	1726.703799645901	386.906147211164	1095.541431544293	1716.174311362988	410.987104540114	1051.725605439619	1784.306045777711	446.1626718093895	1112.575811461854	1770.816671000048	468.3985839410836	1065.995521086245	2073.270507103991	668.0758977656403	1165.363181642366	2028.767771286831	694.4014297772235	1112.826613749999	2117.146690903664	768.1975164940922	1174.134694171925	2077.071277749675	793.0654458612007	1122.96651038599	
3	0.01333333333333333	2311.702235324602	933.6674672753255	909.7570789394383	2338.19136718062	139.9710599613022	995.8745279975807	2362.298608938427	156.469508728516	951.2332691899173	2351.826199854473	184.4000201659026	991.063263341526	2257.537470794911	1016.049472100337	865.8048703543506	2545.771731779992	136.5654276547602	1017.297920714909	2510.891613881248	116.8872609140798	914.658722994397	2157.436646175721	999.7586606317481	965.2894180198018	2410.846562281726	264.9285365443266	927.683475370173	2375.30052749166	271.4862317494186	969.5663758520104	2409.383351185696	343.0462962679455	914.7615941193897	2375.72721528863	349.9568511575954	955.8897215948271	2444.519366091928	667.1301694996481	882.655747006594	2388.382373201244	622.4788067206721	894.9938135960792	2372.933727775789	746.59766843123	857.4659971677382	2319.89092426326	705.1876994705984	868.5627342987809	2312.489349110782	922.5912075703429	1132.137608064349	1699.09035842411	247.7050610817103	1077.871072214732	1602.48429753744	399.0488273631425	1010.156803255348	1616.121316490973	389.4716591093326	1058.247532944073	1650.938704906616	407.2108402228999	1023.887348944911	2297.142638131861	997.4518089519713	1155.972950920645	1683.004079221033	207.8938307261701	1028.710388331557	1637.150307470274	244.7686515782875	1119.884095961914	2159.73602144943	1005.358666730889	1068.29916808137	1717.496048491816	407.633200974762	1095.036790181233	1708.928292989726	431.822790434808	1050.909788852443	1778.848931687581	463.0026945360456	1112.037865256157	1767.22071559362	485.5241482905732	1065.120411589311	2075.582721701779	668.8262555664973	1166.661672794716	2030.709433910452	694.8616829448944	1114.25295630269	2118.722799381419	769.2790230579085	1175.348867562491	2078.427488415125	793.8523599913149	1124.161840597882	
4	0.02	2311.140722882325	933.5909720690261	910.1949190258135	2366.991869364647	123.9878226149102	999.9367042681483	2389.32795898824	141.493494913927	954.6768178836843	2376.927216882834	169.1709146704765	994.100180797634	2256.061975284238	1014.870311894498	865.4561828494517	2574.304463812425	137.7288030925085	1019.024436973519	2540.211956038878	113.0993976884992	917.1937683358556	2157.459077123141	1000.019840065141	964.5193371666159	2428.586857913046	254.3082543520554	929.3503702606693	2393.013545527136	258.528727417515	971.368951690174	2420.775166947081	331.7470251295194	915.19822149322	2386.89585673728	336.5231070570492	956.3950213553065	2437.870165781656	658.3684305500848	880.7812074233981	2380.640644920502	615.8578675893519	895.1475810313265	2368.54364487705	739.97393827066	856.5332127233539	2314.247427535636	700.4198597334438	869.1276441720472	2312.786932068884	925.1959861145815	1132.507872825099	1682.168458455675	270.0800639476454	1078.619855265807	1594.701362746665	426.6036022462606	1009.111363801411	1607.519520863716	416.547495071452	1057.356589176209	1643.496156374824	431.9333487246229	1023.000140522916	2295.170880830465	1001.123143898058	1155.78091142953	1663.884982807293	230.7741140613373	1030.004430378661	1619.767257351509	271.205557049306	1120.235028854168	2159.709200442033	1007.476240698448	1067.188837628454	1709.664511035385	428.211950760801	1094.723390358725	1703.011162989214	452.6465706875386	1050.422239451207	1774.623544268201	479.4597235768985	1111.734796119526	1764.803405201999	502.4395595476996	1064.627238585443	2078.20362668259	669.0624331130239	1167.94893878733	2032.921726063934	694.759654145403	1115.697944351809	2120.521879080484	769.8738782934317	1176.54303086952	2079.936480459231	794.1158503519293	1125.38356005934	
5	0.02666666666666667	2310.461191136842	933.2892571613548	910.6473813129633	2393.503320372165	109.6217287347847	1003.82241793415	2414.165119740823	127.9605675833254	957.9797199474237	2399.961401766037	155.3901989936476	996.9991252062733	2254.552506667699	1013.44634718542	865.2124145625843	2600.108142050221	139.3041368297262	1020.497698582248	2566.8622607151	109.945248429241	919.5075114618123	2157.285829013063	999.6806296759333	963.8133911675383	2444.709225643591	244.6494922202605	930.9208257497725	2409.03595589718	246.6144689742943	972.9777810412522	2430.952942975732	321.2683389333292	915.6787585260826	2396.820906547041	323.9609769040232	956.868546064184	2431.093815212231	649.6639387717754	879.1201506767987	2372.83641208821	609.4008715414228	895.5370599175	2364.128336639745	733.3828292623808	855.6637361993164	2308.678670409517	695.8066504980127	869.8605582963683	2313.034466245783	927.4179132447855	1132.978588509049	1667.068263259185	292.9893060493991	1078.995002070694	1589.197258646871	454.5244477654962	1008.5414620912	1601.225911593965	443.8517410562995	1056.885302918174	1638.186408754576	456.8518233335922	1022.445010579571	2292.906535978376	1004.386341083251	1155.684653660484	1646.433257379913	254.5269821947488	1030.873286535293	1604.54179928234	298.1206507533925	1120.493760393571	2159.584051643283	1008.733386456057	1066.052242853614	1703.739684831559	448.5668305236132	1094.669408144217	1698.943310020917	473.4271802027279	1050.37714842956	1772.096206959366	495.378737194999	1111.750895950472	1764.020685795474	519.0454646299505	1064.653324846234	2081.240775473613	668.593441110054	1169.216172643585	2035.496682771169	693.8895083451622	1117.163663557611	2122.623635232943	769.7980425886321	1177.702031535948	2081.650813926507	793.6604833992167	1126.636640804636	
